<?xml version="1.0" encoding="utf-8" standalone="no"?>
<!DOCTYPE svg PUBLIC "-//W3C//DTD SVG 1.1//EN"
  "http://www.w3.org/Graphics/SVG/1.1/DTD/svg11.dtd">
<!-- Created with matplotlib (http://matplotlib.org/) -->
<svg height="288pt" version="1.1" viewBox="0 0 432 288" width="432pt" xmlns="http://www.w3.org/2000/svg" xmlns:xlink="http://www.w3.org/1999/xlink">
 <defs>
  <style type="text/css">
*{stroke-linecap:butt;stroke-linejoin:round;}
  </style>
 </defs>
 <g id="figure_1">
  <g id="patch_1">
   <path d="M 0 288 
L 432 288 
L 432 0 
L 0 0 
z
" style="fill:#ffffff;"/>
  </g>
  <g id="axes_1">
   <g id="patch_2">
    <path d="M 54 230.4 
L 388.8 230.4 
L 388.8 34.56 
L 54 34.56 
z
" style="fill:#ffffff;"/>
   </g>
   <g id="matplotlib.axis_1">
    <g id="xtick_1">
     <g id="line2d_1">
      <defs>
       <path d="M 0 0 
L 0 3.5 
" id="m75358dad56" style="stroke:#000000;stroke-width:0.8;"/>
      </defs>
      <g>
       <use style="stroke:#000000;stroke-width:0.8;" x="57.724138" xlink:href="#m75358dad56" y="230.4"/>
      </g>
     </g>
     <g id="text_1">
      <!-- 2020-02 -->
      <defs>
       <path d="M 19.1875 8.296875 
L 53.609375 8.296875 
L 53.609375 0 
L 7.328125 0 
L 7.328125 8.296875 
Q 12.9375 14.109375 22.625 23.890625 
Q 32.328125 33.6875 34.8125 36.53125 
Q 39.546875 41.84375 41.421875 45.53125 
Q 43.3125 49.21875 43.3125 52.78125 
Q 43.3125 58.59375 39.234375 62.25 
Q 35.15625 65.921875 28.609375 65.921875 
Q 23.96875 65.921875 18.8125 64.3125 
Q 13.671875 62.703125 7.8125 59.421875 
L 7.8125 69.390625 
Q 13.765625 71.78125 18.9375 73 
Q 24.125 74.21875 28.421875 74.21875 
Q 39.75 74.21875 46.484375 68.546875 
Q 53.21875 62.890625 53.21875 53.421875 
Q 53.21875 48.921875 51.53125 44.890625 
Q 49.859375 40.875 45.40625 35.40625 
Q 44.1875 33.984375 37.640625 27.21875 
Q 31.109375 20.453125 19.1875 8.296875 
z
" id="DejaVuSans-32"/>
       <path d="M 31.78125 66.40625 
Q 24.171875 66.40625 20.328125 58.90625 
Q 16.5 51.421875 16.5 36.375 
Q 16.5 21.390625 20.328125 13.890625 
Q 24.171875 6.390625 31.78125 6.390625 
Q 39.453125 6.390625 43.28125 13.890625 
Q 47.125 21.390625 47.125 36.375 
Q 47.125 51.421875 43.28125 58.90625 
Q 39.453125 66.40625 31.78125 66.40625 
z
M 31.78125 74.21875 
Q 44.046875 74.21875 50.515625 64.515625 
Q 56.984375 54.828125 56.984375 36.375 
Q 56.984375 17.96875 50.515625 8.265625 
Q 44.046875 -1.421875 31.78125 -1.421875 
Q 19.53125 -1.421875 13.0625 8.265625 
Q 6.59375 17.96875 6.59375 36.375 
Q 6.59375 54.828125 13.0625 64.515625 
Q 19.53125 74.21875 31.78125 74.21875 
z
" id="DejaVuSans-30"/>
       <path d="M 4.890625 31.390625 
L 31.203125 31.390625 
L 31.203125 23.390625 
L 4.890625 23.390625 
z
" id="DejaVuSans-2d"/>
      </defs>
      <g transform="translate(20.499317 264.871846)rotate(-30)scale(0.1 -0.1)">
       <use xlink:href="#DejaVuSans-32"/>
       <use x="63.623047" xlink:href="#DejaVuSans-30"/>
       <use x="127.246094" xlink:href="#DejaVuSans-32"/>
       <use x="190.869141" xlink:href="#DejaVuSans-30"/>
       <use x="254.492188" xlink:href="#DejaVuSans-2d"/>
       <use x="290.576172" xlink:href="#DejaVuSans-30"/>
       <use x="354.199219" xlink:href="#DejaVuSans-32"/>
      </g>
     </g>
    </g>
    <g id="xtick_2">
     <g id="line2d_2">
      <g>
       <use style="stroke:#000000;stroke-width:0.8;" x="91.241379" xlink:href="#m75358dad56" y="230.4"/>
      </g>
     </g>
     <g id="text_2">
      <!-- 2020-05 -->
      <defs>
       <path d="M 10.796875 72.90625 
L 49.515625 72.90625 
L 49.515625 64.59375 
L 19.828125 64.59375 
L 19.828125 46.734375 
Q 21.96875 47.46875 24.109375 47.828125 
Q 26.265625 48.1875 28.421875 48.1875 
Q 40.625 48.1875 47.75 41.5 
Q 54.890625 34.8125 54.890625 23.390625 
Q 54.890625 11.625 47.5625 5.09375 
Q 40.234375 -1.421875 26.90625 -1.421875 
Q 22.3125 -1.421875 17.546875 -0.640625 
Q 12.796875 0.140625 7.71875 1.703125 
L 7.71875 11.625 
Q 12.109375 9.234375 16.796875 8.0625 
Q 21.484375 6.890625 26.703125 6.890625 
Q 35.15625 6.890625 40.078125 11.328125 
Q 45.015625 15.765625 45.015625 23.390625 
Q 45.015625 31 40.078125 35.4375 
Q 35.15625 39.890625 26.703125 39.890625 
Q 22.75 39.890625 18.8125 39.015625 
Q 14.890625 38.140625 10.796875 36.28125 
z
" id="DejaVuSans-35"/>
      </defs>
      <g transform="translate(54.016558 264.871846)rotate(-30)scale(0.1 -0.1)">
       <use xlink:href="#DejaVuSans-32"/>
       <use x="63.623047" xlink:href="#DejaVuSans-30"/>
       <use x="127.246094" xlink:href="#DejaVuSans-32"/>
       <use x="190.869141" xlink:href="#DejaVuSans-30"/>
       <use x="254.492188" xlink:href="#DejaVuSans-2d"/>
       <use x="290.576172" xlink:href="#DejaVuSans-30"/>
       <use x="354.199219" xlink:href="#DejaVuSans-35"/>
      </g>
     </g>
    </g>
    <g id="xtick_3">
     <g id="line2d_3">
      <g>
       <use style="stroke:#000000;stroke-width:0.8;" x="125.503448" xlink:href="#m75358dad56" y="230.4"/>
      </g>
     </g>
     <g id="text_3">
      <!-- 2020-08 -->
      <defs>
       <path d="M 31.78125 34.625 
Q 24.75 34.625 20.71875 30.859375 
Q 16.703125 27.09375 16.703125 20.515625 
Q 16.703125 13.921875 20.71875 10.15625 
Q 24.75 6.390625 31.78125 6.390625 
Q 38.8125 6.390625 42.859375 10.171875 
Q 46.921875 13.96875 46.921875 20.515625 
Q 46.921875 27.09375 42.890625 30.859375 
Q 38.875 34.625 31.78125 34.625 
z
M 21.921875 38.8125 
Q 15.578125 40.375 12.03125 44.71875 
Q 8.5 49.078125 8.5 55.328125 
Q 8.5 64.0625 14.71875 69.140625 
Q 20.953125 74.21875 31.78125 74.21875 
Q 42.671875 74.21875 48.875 69.140625 
Q 55.078125 64.0625 55.078125 55.328125 
Q 55.078125 49.078125 51.53125 44.71875 
Q 48 40.375 41.703125 38.8125 
Q 48.828125 37.15625 52.796875 32.3125 
Q 56.78125 27.484375 56.78125 20.515625 
Q 56.78125 9.90625 50.3125 4.234375 
Q 43.84375 -1.421875 31.78125 -1.421875 
Q 19.734375 -1.421875 13.25 4.234375 
Q 6.78125 9.90625 6.78125 20.515625 
Q 6.78125 27.484375 10.78125 32.3125 
Q 14.796875 37.15625 21.921875 38.8125 
z
M 18.3125 54.390625 
Q 18.3125 48.734375 21.84375 45.5625 
Q 25.390625 42.390625 31.78125 42.390625 
Q 38.140625 42.390625 41.71875 45.5625 
Q 45.3125 48.734375 45.3125 54.390625 
Q 45.3125 60.0625 41.71875 63.234375 
Q 38.140625 66.40625 31.78125 66.40625 
Q 25.390625 66.40625 21.84375 63.234375 
Q 18.3125 60.0625 18.3125 54.390625 
z
" id="DejaVuSans-38"/>
      </defs>
      <g transform="translate(88.278627 264.871846)rotate(-30)scale(0.1 -0.1)">
       <use xlink:href="#DejaVuSans-32"/>
       <use x="63.623047" xlink:href="#DejaVuSans-30"/>
       <use x="127.246094" xlink:href="#DejaVuSans-32"/>
       <use x="190.869141" xlink:href="#DejaVuSans-30"/>
       <use x="254.492188" xlink:href="#DejaVuSans-2d"/>
       <use x="290.576172" xlink:href="#DejaVuSans-30"/>
       <use x="354.199219" xlink:href="#DejaVuSans-38"/>
      </g>
     </g>
    </g>
    <g id="xtick_4">
     <g id="line2d_4">
      <g>
       <use style="stroke:#000000;stroke-width:0.8;" x="159.765517" xlink:href="#m75358dad56" y="230.4"/>
      </g>
     </g>
     <g id="text_4">
      <!-- 2020-11 -->
      <defs>
       <path d="M 12.40625 8.296875 
L 28.515625 8.296875 
L 28.515625 63.921875 
L 10.984375 60.40625 
L 10.984375 69.390625 
L 28.421875 72.90625 
L 38.28125 72.90625 
L 38.28125 8.296875 
L 54.390625 8.296875 
L 54.390625 0 
L 12.40625 0 
z
" id="DejaVuSans-31"/>
      </defs>
      <g transform="translate(122.540696 264.871846)rotate(-30)scale(0.1 -0.1)">
       <use xlink:href="#DejaVuSans-32"/>
       <use x="63.623047" xlink:href="#DejaVuSans-30"/>
       <use x="127.246094" xlink:href="#DejaVuSans-32"/>
       <use x="190.869141" xlink:href="#DejaVuSans-30"/>
       <use x="254.492188" xlink:href="#DejaVuSans-2d"/>
       <use x="290.576172" xlink:href="#DejaVuSans-31"/>
       <use x="354.199219" xlink:href="#DejaVuSans-31"/>
      </g>
     </g>
    </g>
    <g id="xtick_5">
     <g id="line2d_5">
      <g>
       <use style="stroke:#000000;stroke-width:0.8;" x="194.027586" xlink:href="#m75358dad56" y="230.4"/>
      </g>
     </g>
     <g id="text_5">
      <!-- 2021-02 -->
      <g transform="translate(156.802765 264.871846)rotate(-30)scale(0.1 -0.1)">
       <use xlink:href="#DejaVuSans-32"/>
       <use x="63.623047" xlink:href="#DejaVuSans-30"/>
       <use x="127.246094" xlink:href="#DejaVuSans-32"/>
       <use x="190.869141" xlink:href="#DejaVuSans-31"/>
       <use x="254.492188" xlink:href="#DejaVuSans-2d"/>
       <use x="290.576172" xlink:href="#DejaVuSans-30"/>
       <use x="354.199219" xlink:href="#DejaVuSans-32"/>
      </g>
     </g>
    </g>
    <g id="xtick_6">
     <g id="line2d_6">
      <g>
       <use style="stroke:#000000;stroke-width:0.8;" x="227.172414" xlink:href="#m75358dad56" y="230.4"/>
      </g>
     </g>
     <g id="text_6">
      <!-- 2021-05 -->
      <g transform="translate(189.947593 264.871846)rotate(-30)scale(0.1 -0.1)">
       <use xlink:href="#DejaVuSans-32"/>
       <use x="63.623047" xlink:href="#DejaVuSans-30"/>
       <use x="127.246094" xlink:href="#DejaVuSans-32"/>
       <use x="190.869141" xlink:href="#DejaVuSans-31"/>
       <use x="254.492188" xlink:href="#DejaVuSans-2d"/>
       <use x="290.576172" xlink:href="#DejaVuSans-30"/>
       <use x="354.199219" xlink:href="#DejaVuSans-35"/>
      </g>
     </g>
    </g>
    <g id="xtick_7">
     <g id="line2d_7">
      <g>
       <use style="stroke:#000000;stroke-width:0.8;" x="261.434483" xlink:href="#m75358dad56" y="230.4"/>
      </g>
     </g>
     <g id="text_7">
      <!-- 2021-08 -->
      <g transform="translate(224.209662 264.871846)rotate(-30)scale(0.1 -0.1)">
       <use xlink:href="#DejaVuSans-32"/>
       <use x="63.623047" xlink:href="#DejaVuSans-30"/>
       <use x="127.246094" xlink:href="#DejaVuSans-32"/>
       <use x="190.869141" xlink:href="#DejaVuSans-31"/>
       <use x="254.492188" xlink:href="#DejaVuSans-2d"/>
       <use x="290.576172" xlink:href="#DejaVuSans-30"/>
       <use x="354.199219" xlink:href="#DejaVuSans-38"/>
      </g>
     </g>
    </g>
    <g id="xtick_8">
     <g id="line2d_8">
      <g>
       <use style="stroke:#000000;stroke-width:0.8;" x="295.696552" xlink:href="#m75358dad56" y="230.4"/>
      </g>
     </g>
     <g id="text_8">
      <!-- 2021-11 -->
      <g transform="translate(258.471731 264.871846)rotate(-30)scale(0.1 -0.1)">
       <use xlink:href="#DejaVuSans-32"/>
       <use x="63.623047" xlink:href="#DejaVuSans-30"/>
       <use x="127.246094" xlink:href="#DejaVuSans-32"/>
       <use x="190.869141" xlink:href="#DejaVuSans-31"/>
       <use x="254.492188" xlink:href="#DejaVuSans-2d"/>
       <use x="290.576172" xlink:href="#DejaVuSans-31"/>
       <use x="354.199219" xlink:href="#DejaVuSans-31"/>
      </g>
     </g>
    </g>
    <g id="xtick_9">
     <g id="line2d_9">
      <g>
       <use style="stroke:#000000;stroke-width:0.8;" x="329.958621" xlink:href="#m75358dad56" y="230.4"/>
      </g>
     </g>
     <g id="text_9">
      <!-- 2022-02 -->
      <g transform="translate(292.7338 264.871846)rotate(-30)scale(0.1 -0.1)">
       <use xlink:href="#DejaVuSans-32"/>
       <use x="63.623047" xlink:href="#DejaVuSans-30"/>
       <use x="127.246094" xlink:href="#DejaVuSans-32"/>
       <use x="190.869141" xlink:href="#DejaVuSans-32"/>
       <use x="254.492188" xlink:href="#DejaVuSans-2d"/>
       <use x="290.576172" xlink:href="#DejaVuSans-30"/>
       <use x="354.199219" xlink:href="#DejaVuSans-32"/>
      </g>
     </g>
    </g>
    <g id="xtick_10">
     <g id="line2d_10">
      <g>
       <use style="stroke:#000000;stroke-width:0.8;" x="363.103448" xlink:href="#m75358dad56" y="230.4"/>
      </g>
     </g>
     <g id="text_10">
      <!-- 2022-05 -->
      <g transform="translate(325.878627 264.871846)rotate(-30)scale(0.1 -0.1)">
       <use xlink:href="#DejaVuSans-32"/>
       <use x="63.623047" xlink:href="#DejaVuSans-30"/>
       <use x="127.246094" xlink:href="#DejaVuSans-32"/>
       <use x="190.869141" xlink:href="#DejaVuSans-32"/>
       <use x="254.492188" xlink:href="#DejaVuSans-2d"/>
       <use x="290.576172" xlink:href="#DejaVuSans-30"/>
       <use x="354.199219" xlink:href="#DejaVuSans-35"/>
      </g>
     </g>
    </g>
    <g id="text_11">
     <!-- Date -->
     <defs>
      <path d="M 19.671875 64.796875 
L 19.671875 8.109375 
L 31.59375 8.109375 
Q 46.6875 8.109375 53.6875 14.9375 
Q 60.6875 21.78125 60.6875 36.53125 
Q 60.6875 51.171875 53.6875 57.984375 
Q 46.6875 64.796875 31.59375 64.796875 
z
M 9.8125 72.90625 
L 30.078125 72.90625 
Q 51.265625 72.90625 61.171875 64.09375 
Q 71.09375 55.28125 71.09375 36.53125 
Q 71.09375 17.671875 61.125 8.828125 
Q 51.171875 0 30.078125 0 
L 9.8125 0 
z
" id="DejaVuSans-44"/>
      <path d="M 34.28125 27.484375 
Q 23.390625 27.484375 19.1875 25 
Q 14.984375 22.515625 14.984375 16.5 
Q 14.984375 11.71875 18.140625 8.90625 
Q 21.296875 6.109375 26.703125 6.109375 
Q 34.1875 6.109375 38.703125 11.40625 
Q 43.21875 16.703125 43.21875 25.484375 
L 43.21875 27.484375 
z
M 52.203125 31.203125 
L 52.203125 0 
L 43.21875 0 
L 43.21875 8.296875 
Q 40.140625 3.328125 35.546875 0.953125 
Q 30.953125 -1.421875 24.3125 -1.421875 
Q 15.921875 -1.421875 10.953125 3.296875 
Q 6 8.015625 6 15.921875 
Q 6 25.140625 12.171875 29.828125 
Q 18.359375 34.515625 30.609375 34.515625 
L 43.21875 34.515625 
L 43.21875 35.40625 
Q 43.21875 41.609375 39.140625 45 
Q 35.0625 48.390625 27.6875 48.390625 
Q 23 48.390625 18.546875 47.265625 
Q 14.109375 46.140625 10.015625 43.890625 
L 10.015625 52.203125 
Q 14.9375 54.109375 19.578125 55.046875 
Q 24.21875 56 28.609375 56 
Q 40.484375 56 46.34375 49.84375 
Q 52.203125 43.703125 52.203125 31.203125 
z
" id="DejaVuSans-61"/>
      <path d="M 18.3125 70.21875 
L 18.3125 54.6875 
L 36.8125 54.6875 
L 36.8125 47.703125 
L 18.3125 47.703125 
L 18.3125 18.015625 
Q 18.3125 11.328125 20.140625 9.421875 
Q 21.96875 7.515625 27.59375 7.515625 
L 36.8125 7.515625 
L 36.8125 0 
L 27.59375 0 
Q 17.1875 0 13.234375 3.875 
Q 9.28125 7.765625 9.28125 18.015625 
L 9.28125 47.703125 
L 2.6875 47.703125 
L 2.6875 54.6875 
L 9.28125 54.6875 
L 9.28125 70.21875 
z
" id="DejaVuSans-74"/>
      <path d="M 56.203125 29.59375 
L 56.203125 25.203125 
L 14.890625 25.203125 
Q 15.484375 15.921875 20.484375 11.0625 
Q 25.484375 6.203125 34.421875 6.203125 
Q 39.59375 6.203125 44.453125 7.46875 
Q 49.3125 8.734375 54.109375 11.28125 
L 54.109375 2.78125 
Q 49.265625 0.734375 44.1875 -0.34375 
Q 39.109375 -1.421875 33.890625 -1.421875 
Q 20.796875 -1.421875 13.15625 6.1875 
Q 5.515625 13.8125 5.515625 26.8125 
Q 5.515625 40.234375 12.765625 48.109375 
Q 20.015625 56 32.328125 56 
Q 43.359375 56 49.78125 48.890625 
Q 56.203125 41.796875 56.203125 29.59375 
z
M 47.21875 32.234375 
Q 47.125 39.59375 43.09375 43.984375 
Q 39.0625 48.390625 32.421875 48.390625 
Q 24.90625 48.390625 20.390625 44.140625 
Q 15.875 39.890625 15.1875 32.171875 
z
" id="DejaVuSans-65"/>
     </defs>
     <g transform="translate(209.449219 278.271346)scale(0.1 -0.1)">
      <use xlink:href="#DejaVuSans-44"/>
      <use x="77.001953" xlink:href="#DejaVuSans-61"/>
      <use x="138.28125" xlink:href="#DejaVuSans-74"/>
      <use x="177.490234" xlink:href="#DejaVuSans-65"/>
     </g>
    </g>
   </g>
   <g id="matplotlib.axis_2">
    <g id="ytick_1">
     <g id="line2d_11">
      <defs>
       <path d="M 0 0 
L -3.5 0 
" id="m40edb7cff4" style="stroke:#000000;stroke-width:0.8;"/>
      </defs>
      <g>
       <use style="stroke:#000000;stroke-width:0.8;" x="54" xlink:href="#m40edb7cff4" y="221.498182"/>
      </g>
     </g>
     <g id="text_12">
      <!-- 0 -->
      <g transform="translate(40.6375 225.297401)scale(0.1 -0.1)">
       <use xlink:href="#DejaVuSans-30"/>
      </g>
     </g>
    </g>
    <g id="ytick_2">
     <g id="line2d_12">
      <g>
       <use style="stroke:#000000;stroke-width:0.8;" x="54" xlink:href="#m40edb7cff4" y="183.589875"/>
      </g>
     </g>
     <g id="text_13">
      <!-- 200000 -->
      <g transform="translate(8.825 187.389094)scale(0.1 -0.1)">
       <use xlink:href="#DejaVuSans-32"/>
       <use x="63.623047" xlink:href="#DejaVuSans-30"/>
       <use x="127.246094" xlink:href="#DejaVuSans-30"/>
       <use x="190.869141" xlink:href="#DejaVuSans-30"/>
       <use x="254.492188" xlink:href="#DejaVuSans-30"/>
       <use x="318.115234" xlink:href="#DejaVuSans-30"/>
      </g>
     </g>
    </g>
    <g id="ytick_3">
     <g id="line2d_13">
      <g>
       <use style="stroke:#000000;stroke-width:0.8;" x="54" xlink:href="#m40edb7cff4" y="145.681568"/>
      </g>
     </g>
     <g id="text_14">
      <!-- 400000 -->
      <defs>
       <path d="M 37.796875 64.3125 
L 12.890625 25.390625 
L 37.796875 25.390625 
z
M 35.203125 72.90625 
L 47.609375 72.90625 
L 47.609375 25.390625 
L 58.015625 25.390625 
L 58.015625 17.1875 
L 47.609375 17.1875 
L 47.609375 0 
L 37.796875 0 
L 37.796875 17.1875 
L 4.890625 17.1875 
L 4.890625 26.703125 
z
" id="DejaVuSans-34"/>
      </defs>
      <g transform="translate(8.825 149.480787)scale(0.1 -0.1)">
       <use xlink:href="#DejaVuSans-34"/>
       <use x="63.623047" xlink:href="#DejaVuSans-30"/>
       <use x="127.246094" xlink:href="#DejaVuSans-30"/>
       <use x="190.869141" xlink:href="#DejaVuSans-30"/>
       <use x="254.492188" xlink:href="#DejaVuSans-30"/>
       <use x="318.115234" xlink:href="#DejaVuSans-30"/>
      </g>
     </g>
    </g>
    <g id="ytick_4">
     <g id="line2d_14">
      <g>
       <use style="stroke:#000000;stroke-width:0.8;" x="54" xlink:href="#m40edb7cff4" y="107.773261"/>
      </g>
     </g>
     <g id="text_15">
      <!-- 600000 -->
      <defs>
       <path d="M 33.015625 40.375 
Q 26.375 40.375 22.484375 35.828125 
Q 18.609375 31.296875 18.609375 23.390625 
Q 18.609375 15.53125 22.484375 10.953125 
Q 26.375 6.390625 33.015625 6.390625 
Q 39.65625 6.390625 43.53125 10.953125 
Q 47.40625 15.53125 47.40625 23.390625 
Q 47.40625 31.296875 43.53125 35.828125 
Q 39.65625 40.375 33.015625 40.375 
z
M 52.59375 71.296875 
L 52.59375 62.3125 
Q 48.875 64.0625 45.09375 64.984375 
Q 41.3125 65.921875 37.59375 65.921875 
Q 27.828125 65.921875 22.671875 59.328125 
Q 17.53125 52.734375 16.796875 39.40625 
Q 19.671875 43.65625 24.015625 45.921875 
Q 28.375 48.1875 33.59375 48.1875 
Q 44.578125 48.1875 50.953125 41.515625 
Q 57.328125 34.859375 57.328125 23.390625 
Q 57.328125 12.15625 50.6875 5.359375 
Q 44.046875 -1.421875 33.015625 -1.421875 
Q 20.359375 -1.421875 13.671875 8.265625 
Q 6.984375 17.96875 6.984375 36.375 
Q 6.984375 53.65625 15.1875 63.9375 
Q 23.390625 74.21875 37.203125 74.21875 
Q 40.921875 74.21875 44.703125 73.484375 
Q 48.484375 72.75 52.59375 71.296875 
z
" id="DejaVuSans-36"/>
      </defs>
      <g transform="translate(8.825 111.57248)scale(0.1 -0.1)">
       <use xlink:href="#DejaVuSans-36"/>
       <use x="63.623047" xlink:href="#DejaVuSans-30"/>
       <use x="127.246094" xlink:href="#DejaVuSans-30"/>
       <use x="190.869141" xlink:href="#DejaVuSans-30"/>
       <use x="254.492188" xlink:href="#DejaVuSans-30"/>
       <use x="318.115234" xlink:href="#DejaVuSans-30"/>
      </g>
     </g>
    </g>
    <g id="ytick_5">
     <g id="line2d_15">
      <g>
       <use style="stroke:#000000;stroke-width:0.8;" x="54" xlink:href="#m40edb7cff4" y="69.864954"/>
      </g>
     </g>
     <g id="text_16">
      <!-- 800000 -->
      <g transform="translate(8.825 73.664173)scale(0.1 -0.1)">
       <use xlink:href="#DejaVuSans-38"/>
       <use x="63.623047" xlink:href="#DejaVuSans-30"/>
       <use x="127.246094" xlink:href="#DejaVuSans-30"/>
       <use x="190.869141" xlink:href="#DejaVuSans-30"/>
       <use x="254.492188" xlink:href="#DejaVuSans-30"/>
       <use x="318.115234" xlink:href="#DejaVuSans-30"/>
      </g>
     </g>
    </g>
   </g>
   <g id="line2d_16">
    <path clip-path="url(#p09f1c92d7d)" d="M 54 221.498182 
L 77.834483 221.392418 
L 83.793103 220.934485 
L 86.4 220.700212 
L 87.889655 220.584402 
L 89.751724 220.356952 
L 90.868966 220.260097 
L 101.668966 219.123037 
L 105.393103 218.303649 
L 106.510345 217.975363 
L 107.255172 217.696168 
L 107.627586 217.438581 
L 108.372414 217.335471 
L 109.489655 216.897251 
L 110.606897 216.427567 
L 111.724138 215.994464 
L 115.448276 214.267362 
L 116.937931 213.496496 
L 118.055172 212.848833 
L 118.8 212.381992 
L 121.034483 211.182194 
L 122.151724 210.729 
L 124.386207 209.506078 
L 126.993103 208.18649 
L 128.482759 207.378854 
L 130.344828 206.448205 
L 131.462069 205.852855 
L 131.834483 205.806038 
L 132.206897 205.62332 
L 132.951724 205.502393 
L 134.441379 204.746311 
L 144.496552 201.25325 
L 145.613793 200.890089 
L 152.317241 198.601185 
L 153.434483 198.206749 
L 158.648276 196.47017 
L 160.510345 195.797866 
L 161.255172 195.613063 
L 162.372414 195.05202 
L 163.862069 194.327024 
L 168.703448 191.449783 
L 169.82069 190.517049 
L 170.937931 189.785798 
L 174.662069 185.906262 
L 175.406897 184.915339 
L 176.151724 184.160964 
L 180.248276 178.145484 
L 180.993103 177.201377 
L 182.110345 174.721226 
L 182.855172 173.778447 
L 183.6 172.931954 
L 183.972414 172.260977 
L 184.717241 170.494261 
L 185.462069 169.038392 
L 186.206897 168.170102 
L 186.951724 166.832887 
L 188.068966 165.342901 
L 189.931034 163.545478 
L 191.048276 162.504516 
L 191.42069 162.331275 
L 192.910345 161.17602 
L 193.655172 160.773054 
L 194.4 160.42771 
L 195.889655 159.619694 
L 197.751724 158.93526 
L 198.868966 158.536464 
L 200.358621 158.103551 
L 201.475862 157.713475 
L 209.296552 155.553081 
L 210.413793 155.344395 
L 214.510345 154.430995 
L 215.627586 154.20127 
L 217.117241 153.949938 
L 218.234483 153.779351 
L 219.724138 153.526502 
L 221.213793 153.295451 
L 222.703448 153.065348 
L 228.662069 152.130719 
L 232.013793 151.359664 
L 239.462069 149.433163 
L 240.57931 149.003283 
L 241.324138 148.76484 
L 244.675862 147.351429 
L 245.793103 146.870562 
L 246.165517 146.773138 
L 248.027586 145.704882 
L 249.144828 145.192361 
L 251.006897 144.141922 
L 251.37931 144.027249 
L 253.241379 142.905353 
L 254.731034 142.155337 
L 255.848276 141.519804 
L 256.965517 141.04633 
L 258.827586 140.004988 
L 259.2 139.911165 
L 261.434483 138.76804 
L 261.806897 138.704165 
L 262.924138 138.175913 
L 263.296552 138.175913 
L 264.041379 137.664909 
L 264.786207 137.395191 
L 266.275862 136.723645 
L 268.137931 136.086217 
L 271.489655 135.028765 
L 275.958621 134.07594 
L 279.682759 133.496322 
L 281.172414 133.272094 
L 286.013793 132.731143 
L 290.482759 132.338792 
L 291.227586 132.251602 
L 295.324138 131.908722 
L 297.186207 131.81035 
L 301.655172 131.434489 
L 311.337931 130.370213 
L 311.710345 130.245684 
L 312.455172 130.172521 
L 312.827586 130.010842 
L 313.572414 129.937679 
L 314.317241 129.828693 
L 315.062069 129.473492 
L 315.434483 129.473492 
L 315.806897 129.152788 
L 316.551724 128.937279 
L 317.296552 128.425138 
L 317.668966 128.425138 
L 318.041379 127.500744 
L 318.413793 127.142889 
L 319.531034 126.699362 
L 319.903448 126.081646 
L 320.275862 124.37672 
L 321.393103 121.739629 
L 322.137931 120.36659 
L 322.510345 119.132106 
L 322.882759 119.132106 
L 323.255172 115.605875 
L 324 112.539093 
L 324.372414 111.50268 
L 325.862069 102.676489 
L 326.234483 102.676489 
L 326.606897 99.303977 
L 326.97931 99.303977 
L 327.351724 98.270027 
L 327.724138 94.531889 
L 328.841379 90.21527 
L 329.213793 89.364229 
L 329.586207 89.364229 
L 329.958621 87.704603 
L 330.331034 87.704603 
L 330.703448 85.56449 
L 331.075862 84.747945 
L 331.448276 84.747945 
L 331.82069 83.623205 
L 332.193103 83.623205 
L 332.565517 82.714543 
L 333.310345 81.681163 
L 334.055172 80.924513 
L 334.427586 80.696495 
L 334.8 80.696495 
L 335.172414 80.220177 
L 336.289655 79.505984 
L 336.662069 79.505984 
L 337.034483 79.197979 
L 337.406897 79.197979 
L 338.151724 78.791033 
L 339.268966 78.412329 
L 344.110345 77.5937 
L 345.227586 77.487935 
L 350.068966 76.786442 
L 351.558621 76.586855 
L 354.537931 76.213837 
L 356.027586 76.107125 
L 356.772414 75.892564 
L 359.37931 75.463442 
L 361.986207 74.688976 
L 363.475862 74.099691 
L 363.848276 73.97611 
L 364.965517 72.862743 
L 365.337931 72.356288 
L 366.082759 71.792591 
L 367.944828 68.675202 
L 368.689655 67.92367 
L 369.062069 67.92367 
L 369.434483 66.51803 
L 370.551724 64.535046 
L 371.296552 63.791095 
L 373.158621 60.296139 
L 373.903448 59.544607 
L 375.393103 56.825255 
L 375.765517 56.246016 
L 376.510345 55.557222 
L 377.627586 53.745205 
L 378.372414 52.813798 
L 379.489655 51.888077 
L 380.97931 50.458554 
L 382.096552 49.691101 
L 383.586207 48.270108 
L 384.703448 47.515733 
L 385.82069 46.553241 
L 386.193103 46.553241 
L 386.565517 46.124119 
L 388.8 46.124119 
L 388.8 46.124119 
" style="fill:none;stroke:#1f77b4;stroke-linecap:square;stroke-width:1.5;"/>
   </g>
   <g id="line2d_17">
    <path clip-path="url(#p09f1c92d7d)" d="M 54 221.498182 
L 83.793103 221.388816 
L 110.97931 221.049347 
L 114.703448 220.681068 
L 118.055172 220.058424 
L 121.77931 219.155259 
L 124.013793 218.400315 
L 126.993103 217.628312 
L 129.972414 216.545651 
L 132.206897 215.734413 
L 132.951724 215.407454 
L 135.931034 213.973572 
L 136.303448 213.973572 
L 137.048276 213.502562 
L 138.537931 212.604893 
L 138.910345 212.604893 
L 139.655172 212.040628 
L 141.144828 210.987346 
L 141.517241 210.987346 
L 141.889655 210.62589 
L 142.634483 210.217428 
L 143.751724 209.422112 
L 144.124138 209.422112 
L 144.868966 208.857846 
L 146.358621 207.841904 
L 146.731034 207.841904 
L 147.103448 207.526317 
L 148.593103 206.746354 
L 148.965517 206.489904 
L 149.337931 206.489904 
L 149.710345 206.120867 
L 150.455172 205.672032 
L 151.572414 204.92486 
L 151.944828 204.92486 
L 152.689655 204.394333 
L 153.806897 203.615317 
L 154.17931 203.394312 
L 154.551724 203.394312 
L 155.296552 202.937896 
L 156.413793 202.197925 
L 156.786207 201.958724 
L 157.158621 201.958724 
L 158.275862 201.301963 
L 162 199.44256 
L 162.372414 199.44256 
L 164.606897 198.142305 
L 164.97931 198.142305 
L 166.841379 196.968095 
L 167.586207 196.968095 
L 167.958621 196.422784 
L 168.703448 196.001055 
L 169.448276 195.513364 
L 170.193103 195.513364 
L 170.565517 195.030981 
L 170.937931 194.929766 
L 172.055172 194.263906 
L 172.8 194.263906 
L 173.172414 193.745321 
L 175.034483 192.887456 
L 175.406897 192.887456 
L 175.77931 192.466294 
L 177.641379 191.650697 
L 178.013793 191.650697 
L 178.386207 191.191817 
L 179.875862 190.604807 
L 180.62069 190.604807 
L 180.993103 190.079398 
L 182.482759 189.40482 
L 183.227586 189.40482 
L 183.6 188.814398 
L 185.462069 187.832952 
L 185.834483 187.832952 
L 186.206897 187.369144 
L 187.696552 186.587095 
L 188.441379 186.587095 
L 188.813793 186.240424 
L 190.303448 185.616453 
L 191.048276 185.616453 
L 191.42069 185.344082 
L 193.282759 184.864352 
L 193.655172 184.864352 
L 194.027586 184.619275 
L 195.889655 184.265022 
L 196.262069 184.265022 
L 197.006897 183.99701 
L 198.124138 183.743972 
L 198.868966 183.743972 
L 199.613793 183.503823 
L 201.103448 183.271824 
L 201.475862 183.271824 
L 202.22069 183.002865 
L 203.710345 182.767075 
L 204.082759 182.767075 
L 204.827586 182.544743 
L 206.317241 182.331319 
L 207.062069 182.331319 
L 207.434483 182.105386 
L 208.17931 182.105386 
L 208.551724 181.866374 
L 209.668966 181.866374 
L 210.041379 181.609734 
L 210.786207 181.609734 
L 211.158621 181.333762 
L 212.275862 181.333762 
L 212.648276 181.042816 
L 213.393103 181.042816 
L 213.765517 180.713013 
L 214.882759 180.713013 
L 215.255172 180.412401 
L 217.489655 180.412401 
L 217.862069 179.828234 
L 218.606897 179.828234 
L 218.97931 179.31685 
L 220.096552 179.31685 
L 220.468966 178.786324 
L 220.841379 178.786324 
L 221.213793 178.371228 
L 221.586207 178.173346 
L 222.331034 178.173346 
L 222.703448 177.744983 
L 223.448276 177.240613 
L 224.565517 176.243245 
L 224.937931 176.243245 
L 226.8 173.924962 
L 227.544828 173.924962 
L 227.917241 172.847419 
L 228.289655 172.600257 
L 229.406897 171.177558 
L 230.151724 171.177558 
L 230.524138 170.041825 
L 230.896552 169.61801 
L 232.013793 167.907019 
L 232.758621 167.907019 
L 233.131034 166.791567 
L 233.875862 165.807088 
L 234.62069 164.783753 
L 235.365517 164.783753 
L 235.737931 163.777288 
L 237.227586 161.962807 
L 237.972414 161.962807 
L 238.344828 161.037086 
L 239.834483 159.332539 
L 240.57931 159.332539 
L 240.951724 158.585556 
L 242.441379 157.073014 
L 243.186207 157.073014 
L 243.558621 156.370952 
L 245.048276 155.039233 
L 245.793103 155.039233 
L 246.165517 154.382472 
L 247.282759 153.402353 
L 247.655172 153.07274 
L 248.4 153.07274 
L 248.772414 152.447443 
L 250.262069 151.139227 
L 251.006897 151.139227 
L 251.37931 150.548236 
L 252.868966 149.38104 
L 253.986207 149.38104 
L 254.358621 148.511613 
L 255.475862 147.615271 
L 256.22069 147.615271 
L 256.593103 147.049868 
L 258.082759 145.94541 
L 259.2 145.94541 
L 259.572414 145.294145 
L 260.689655 144.390032 
L 261.806897 144.390032 
L 262.17931 143.573297 
L 263.296552 142.520584 
L 264.041379 142.520584 
L 264.413793 141.803169 
L 265.903448 140.31849 
L 266.648276 140.31849 
L 267.02069 139.587997 
L 268.510345 137.977273 
L 269.255172 137.977273 
L 269.627586 137.068421 
L 270.744828 135.636435 
L 271.117241 135.108183 
L 271.862069 135.108183 
L 272.234483 134.092051 
L 273.724138 131.974872 
L 274.468966 131.974872 
L 274.841379 130.870034 
L 276.331034 128.663771 
L 277.448276 128.663771 
L 277.82069 127.346078 
L 278.937931 125.748811 
L 279.682759 125.748811 
L 280.055172 124.708228 
L 281.544828 122.712546 
L 282.289655 122.712546 
L 282.662069 121.799524 
L 284.151724 120.307074 
L 284.896552 120.307074 
L 285.268966 119.540758 
L 286.758621 118.383607 
L 287.503448 118.383607 
L 287.875862 117.895727 
L 288.993103 117.224939 
L 289.365517 117.033502 
L 290.110345 117.033502 
L 290.482759 116.690622 
L 292.344828 116.118775 
L 292.717241 116.118775 
L 293.462069 115.74879 
L 294.57931 115.412164 
L 295.324138 115.412164 
L 296.068966 115.155146 
L 297.558621 114.915944 
L 297.931034 114.915944 
L 298.675862 114.731331 
L 299.048276 114.731331 
L 299.793103 114.566619 
L 300.910345 114.47128 
L 304.262069 114.161569 
L 310.593103 113.839538 
L 313.944828 113.736617 
L 314.689655 113.675584 
L 316.551724 113.675584 
L 316.924138 113.354122 
L 319.158621 113.354122 
L 319.531034 112.346709 
L 320.275862 111.299871 
L 320.648276 110.702246 
L 321.393103 110.702246 
L 321.765517 109.337926 
L 322.882759 106.890376 
L 323.255172 105.900211 
L 324 105.900211 
L 324.372414 103.871169 
L 325.862069 99.528962 
L 326.97931 99.528962 
L 327.351724 96.081581 
L 328.468966 92.139875 
L 329.213793 92.139875 
L 329.586207 89.792403 
L 331.075862 84.65469 
L 331.82069 84.65469 
L 332.193103 82.430041 
L 333.682759 77.997613 
L 334.427586 77.997613 
L 334.8 76.210805 
L 336.289655 73.00433 
L 337.034483 73.00433 
L 337.406897 71.676213 
L 338.524138 69.897934 
L 338.896552 69.396407 
L 339.641379 69.396407 
L 340.013793 68.55181 
L 341.131034 67.436548 
L 341.503448 67.10087 
L 342.248276 67.10087 
L 342.62069 66.540775 
L 344.110345 65.517819 
L 344.855172 65.517819 
L 345.227586 65.096468 
L 346.717241 64.292433 
L 347.462069 64.292433 
L 347.834483 63.960356 
L 349.324138 63.282935 
L 350.813793 63.282935 
L 351.186207 62.694977 
L 352.303448 62.403083 
L 353.048276 62.403083 
L 353.42069 62.028738 
L 355.655172 62.028738 
L 356.027586 61.356055 
L 358.634483 61.356055 
L 359.006897 60.807901 
L 361.241379 60.807901 
L 361.613793 59.994768 
L 363.848276 59.994768 
L 364.22069 59.006119 
L 366.082759 59.006119 
L 366.455172 57.324128 
L 369.062069 57.324128 
L 369.434483 55.16923 
L 371.296552 55.16923 
L 371.668966 52.609472 
L 374.275862 52.609472 
L 374.648276 49.975603 
L 388.8 49.975603 
L 388.8 49.975603 
" style="fill:none;stroke:#ff7f0e;stroke-linecap:square;stroke-width:1.5;"/>
   </g>
   <g id="line2d_18">
    <path clip-path="url(#p09f1c92d7d)" d="M 54 221.498182 
L 100.924138 221.4453 
L 101.668966 221.330438 
L 106.137931 221.250072 
L 106.882759 221.184491 
L 116.565517 221.084602 
L 117.682759 221.041197 
L 121.406897 220.984145 
L 122.524138 220.928799 
L 134.441379 220.827205 
L 136.303448 220.804649 
L 152.689655 220.697369 
L 156.413793 220.671402 
L 189.186207 220.566396 
L 195.889655 220.545357 
L 230.896552 220.441488 
L 234.62069 220.411919 
L 246.537931 220.314874 
L 248.027586 220.284737 
L 254.358621 220.205698 
L 255.475862 220.163051 
L 262.17931 220.059182 
L 262.924138 220.002699 
L 267.393103 219.945268 
L 268.137931 219.887837 
L 272.606897 219.817517 
L 273.351724 219.738668 
L 277.82069 219.653564 
L 278.565517 219.556329 
L 283.034483 219.459284 
L 283.77931 219.36148 
L 288.248276 219.273154 
L 288.993103 219.191651 
L 293.462069 219.119625 
L 294.206897 219.05954 
L 311.710345 218.949038 
L 317.296552 218.92743 
L 345.6 218.82413 
L 349.696552 218.802522 
L 388.8 218.707941 
L 388.8 218.707941 
" style="fill:none;stroke:#2ca02c;stroke-linecap:square;stroke-width:1.5;"/>
   </g>
   <g id="line2d_19">
    <path clip-path="url(#p09f1c92d7d)" d="M 54 221.498182 
L 90.496552 221.392607 
L 97.572414 221.135778 
L 103.903448 220.331743 
L 108.372414 219.46895 
L 113.958621 217.894808 
L 116.193103 216.800016 
L 116.565517 216.681742 
L 117.682759 216.077673 
L 119.544828 215.254873 
L 119.917241 215.089972 
L 120.289655 214.287643 
L 121.77931 213.701391 
L 123.268966 212.958767 
L 123.641379 212.910244 
L 125.503448 211.835544 
L 126.62069 211.572839 
L 127.737931 211.022221 
L 128.482759 210.769183 
L 129.227586 210.511217 
L 130.717241 209.68728 
L 131.462069 209.567679 
L 133.696552 208.573724 
L 134.068966 208.508332 
L 135.931034 207.532951 
L 137.048276 207.302848 
L 138.537931 206.812314 
L 139.282759 206.746543 
L 141.144828 206.020599 
L 142.634483 205.78064 
L 144.124138 205.302995 
L 144.496552 205.258074 
L 145.986207 204.652109 
L 146.731034 204.422006 
L 147.475862 204.255967 
L 148.965517 203.729042 
L 150.082759 203.516376 
L 151.2 203.124973 
L 151.944828 202.977131 
L 152.689655 202.851086 
L 154.551724 202.286252 
L 155.668966 202.086286 
L 156.786207 201.666072 
L 157.903448 201.488092 
L 159.02069 201.152983 
L 159.765517 201.007984 
L 160.510345 200.936147 
L 162.372414 200.409412 
L 162.744828 200.390837 
L 164.606897 199.754166 
L 165.724138 199.56254 
L 167.586207 199.013059 
L 168.331034 198.876589 
L 170.193103 198.379611 
L 170.565517 198.362363 
L 172.427586 197.738771 
L 173.544828 197.526295 
L 175.406897 196.993873 
L 176.151724 196.84224 
L 177.641379 196.365922 
L 178.758621 196.175243 
L 179.875862 195.894911 
L 180.993103 195.826487 
L 182.482759 195.296718 
L 183.6 195.217111 
L 185.089655 194.571153 
L 185.462069 194.369671 
L 186.206897 194.347684 
L 186.951724 193.827771 
L 188.068966 193.332689 
L 188.813793 193.22882 
L 189.931034 192.613 
L 191.793103 192.032244 
L 193.282759 191.338712 
L 194.772414 190.988439 
L 195.889655 190.614853 
L 197.006897 190.414697 
L 198.868966 189.791863 
L 199.241379 189.772151 
L 201.475862 189.054357 
L 201.848276 189.031802 
L 203.337931 188.553209 
L 204.082759 188.415223 
L 204.455172 188.394184 
L 206.317241 187.695913 
L 207.434483 187.463535 
L 208.924138 186.872924 
L 209.668966 186.809427 
L 211.531034 185.929007 
L 212.275862 185.841818 
L 214.510345 184.845208 
L 215.627586 184.758588 
L 216.372414 184.530759 
L 217.489655 184.408694 
L 219.724138 183.007793 
L 220.096552 182.962682 
L 221.586207 181.568035 
L 221.958621 181.257187 
L 222.703448 181.116547 
L 224.565517 179.551313 
L 225.682759 179.225681 
L 226.8 178.345071 
L 227.544828 178.153065 
L 227.917241 178.117621 
L 229.77931 176.978098 
L 230.524138 176.898301 
L 231.641379 176.238127 
L 232.386207 175.796496 
L 233.131034 175.718594 
L 234.62069 174.841396 
L 235.365517 174.595371 
L 235.737931 174.559358 
L 237.972414 173.311985 
L 238.344828 173.275593 
L 240.206897 171.953541 
L 240.951724 171.789967 
L 242.441379 170.45313 
L 242.813793 170.107596 
L 243.558621 169.94478 
L 245.42069 168.436598 
L 246.165517 168.264684 
L 248.4 166.228818 
L 249.144828 166.024303 
L 249.517241 165.852009 
L 250.634483 164.410356 
L 251.37931 164.155423 
L 253.613793 161.121432 
L 253.986207 161.004674 
L 255.848276 158.356968 
L 256.593103 158.120231 
L 258.455172 155.003979 
L 258.827586 154.762882 
L 259.2 154.668869 
L 259.944828 153.491058 
L 261.062069 151.655159 
L 261.806897 151.318912 
L 262.17931 150.790281 
L 263.668966 147.669859 
L 264.413793 147.365076 
L 264.786207 146.748308 
L 266.275862 143.458056 
L 267.02069 143.066463 
L 267.765517 141.460478 
L 268.882759 138.494342 
L 269.627586 138.09858 
L 271.489655 133.597726 
L 272.234483 133.209924 
L 274.096552 129.225761 
L 274.841379 128.899939 
L 276.703448 124.89758 
L 277.448276 124.555837 
L 278.193103 122.939237 
L 278.565517 122.729415 
L 279.310345 121.308801 
L 280.055172 121.03624 
L 281.917241 117.514938 
L 282.662069 117.18722 
L 283.406897 115.877299 
L 284.524138 114.299934 
L 285.268966 114.097125 
L 286.386207 112.566198 
L 287.131034 111.789836 
L 287.875862 111.606928 
L 289.737931 110.107086 
L 290.482759 109.998099 
L 291.227586 109.391946 
L 291.6 109.333756 
L 292.344828 108.784465 
L 293.089655 108.708269 
L 294.951724 107.507524 
L 296.441379 107.285191 
L 297.558621 106.746894 
L 298.675862 106.495182 
L 300.537931 105.877087 
L 301.282759 105.765827 
L 301.655172 105.617416 
L 302.027586 105.617416 
L 302.4 105.306567 
L 303.144828 105.14015 
L 303.517241 105.129157 
L 304.634483 104.63559 
L 305.751724 104.435435 
L 306.496552 104.364546 
L 308.358621 104.010482 
L 309.103448 103.89998 
L 310.965517 103.559942 
L 311.710345 103.503838 
L 313.572414 103.275251 
L 314.317241 103.191853 
L 315.806897 103.010651 
L 316.551724 102.98601 
L 317.668966 102.549117 
L 318.413793 102.354458 
L 319.158621 102.313707 
L 319.531034 102.122838 
L 319.903448 101.759108 
L 320.275862 101.759108 
L 320.648276 101.023118 
L 321.02069 100.634558 
L 321.393103 100.437056 
L 321.765517 100.372043 
L 322.510345 99.53825 
L 323.627586 97.959938 
L 324 97.695148 
L 324.372414 97.622364 
L 326.234483 94.692621 
L 326.97931 94.412668 
L 327.724138 93.138001 
L 328.841379 91.031815 
L 329.586207 90.659556 
L 330.703448 88.381267 
L 331.82069 86.719745 
L 332.193103 86.533805 
L 332.937931 84.876264 
L 334.055172 82.382277 
L 334.8 82.003762 
L 336.662069 78.091057 
L 337.406897 77.768267 
L 339.268966 74.364291 
L 339.641379 74.226115 
L 340.013793 74.226115 
L 340.758621 72.89307 
L 341.875862 71.391901 
L 342.62069 71.199137 
L 343.365517 70.16822 
L 344.482759 68.972403 
L 345.227586 68.842756 
L 347.089655 66.874747 
L 347.834483 66.708519 
L 349.324138 65.478015 
L 349.696552 65.28582 
L 350.441379 65.193892 
L 351.931034 64.201263 
L 352.303448 64.037499 
L 353.048276 63.960925 
L 354.165517 63.473045 
L 354.910345 63.190628 
L 355.655172 63.150445 
L 356.772414 62.790127 
L 358.262069 62.736676 
L 360.496552 61.795792 
L 361.241379 61.663681 
L 363.103448 61.030234 
L 363.848276 60.997253 
L 365.337931 60.49838 
L 366.082759 60.472792 
L 366.455172 60.339544 
L 366.827586 60.339544 
L 367.572414 60.032108 
L 368.317241 59.913455 
L 368.689655 59.896775 
L 370.924138 59.156615 
L 371.668966 59.023747 
L 373.158621 58.491325 
L 373.903448 58.460429 
L 376.137931 57.608819 
L 376.510345 57.588728 
L 377.627586 56.907895 
L 378 56.907895 
L 378.372414 56.427028 
L 379.117241 56.357656 
L 380.234483 55.365216 
L 380.97931 54.669599 
L 382.096552 54.566109 
L 382.468966 53.422794 
L 383.586207 51.643758 
L 384.331034 51.391857 
L 385.075862 49.841407 
L 385.82069 48.006835 
L 386.193103 47.347988 
L 386.937931 46.902755 
L 387.310345 46.676443 
L 388.055172 44.606839 
L 388.8 43.461818 
L 388.8 43.461818 
" style="fill:none;stroke:#d62728;stroke-linecap:square;stroke-width:1.5;"/>
   </g>
   <g id="line2d_20">
    <path clip-path="url(#p09f1c92d7d)" d="M 54 221.498182 
L 92.358621 221.392986 
L 98.689655 221.187334 
L 110.97931 220.555592 
L 115.075862 220.075294 
L 121.406897 219.11337 
L 132.951724 216.911277 
L 136.303448 216.639285 
L 151.572414 215.798668 
L 154.17931 215.535963 
L 159.393103 215.08675 
L 179.503448 213.041028 
L 197.006897 210.72104 
L 207.434483 209.833985 
L 225.310345 208.520652 
L 226.055172 208.4346 
L 227.172414 208.382287 
L 228.289655 208.282019 
L 229.77931 208.181941 
L 239.089655 207.528592 
L 239.834483 207.445383 
L 240.951724 207.445383 
L 241.324138 207.285789 
L 243.558621 207.216038 
L 243.931034 207.036731 
L 246.910345 206.811746 
L 248.027586 206.811746 
L 248.4 206.605524 
L 249.889655 206.568753 
L 250.262069 206.568753 
L 250.634483 206.374663 
L 252.124138 206.290317 
L 252.496552 206.158206 
L 253.241379 206.158206 
L 253.613793 206.023253 
L 254.358621 205.931136 
L 256.22069 205.794287 
L 256.965517 205.794287 
L 257.337931 205.549399 
L 259.2 205.44572 
L 259.572414 205.239499 
L 263.668966 204.748207 
L 264.786207 204.748207 
L 265.158621 204.414993 
L 267.393103 204.414993 
L 267.765517 204.034773 
L 269.255172 203.930335 
L 270 203.930335 
L 270.372414 203.669905 
L 272.606897 203.669905 
L 272.97931 203.289495 
L 275.586207 203.289495 
L 275.958621 202.899987 
L 277.075862 202.899987 
L 277.448276 202.600701 
L 279.682759 202.600701 
L 280.055172 202.160396 
L 282.289655 202.160396 
L 282.662069 201.719902 
L 285.641379 201.719902 
L 286.013793 201.153741 
L 286.758621 201.091382 
L 288.62069 201.091382 
L 288.993103 200.671168 
L 289.737931 200.612979 
L 291.6 200.612979 
L 291.972414 200.214563 
L 293.089655 200.214563 
L 293.462069 200.000002 
L 297.186207 200.000002 
L 297.558621 199.462462 
L 298.675862 199.462462 
L 299.048276 199.255483 
L 300.537931 199.154268 
L 302.027586 199.12451 
L 305.006897 199.12451 
L 305.751724 198.790537 
L 310.593103 198.790537 
L 310.965517 198.539584 
L 316.924138 198.423206 
L 321.02069 198.329762 
L 324 198.075208 
L 325.489655 198.075208 
L 325.862069 197.424132 
L 328.468966 197.424132 
L 328.841379 196.239498 
L 329.586207 195.889415 
L 334.427586 195.889415 
L 334.8 193.486597 
L 339.641379 193.486597 
L 340.013793 191.860709 
L 345.972414 191.860709 
L 346.344828 191.113726 
L 347.089655 190.972139 
L 354.537931 190.873956 
L 355.282759 190.775584 
L 372.041379 190.775584 
L 372.413793 190.649349 
L 375.765517 190.649349 
L 376.137931 190.463599 
L 381.724138 190.387972 
L 382.096552 189.343219 
L 388.8 189.343219 
L 388.8 189.343219 
" style="fill:none;stroke:#9467bd;stroke-linecap:square;stroke-width:1.5;"/>
   </g>
   <g id="line2d_21">
    <path clip-path="url(#p09f1c92d7d)" d="M 54 221.498182 
L 88.262069 221.39981 
L 98.317241 220.938087 
L 102.786207 220.48186 
L 106.137931 220.103156 
L 108.372414 219.667969 
L 112.468966 218.274649 
L 113.213793 217.931389 
L 115.075862 217.1537 
L 116.193103 216.67852 
L 119.544828 215.647603 
L 123.268966 214.053748 
L 125.131034 213.534784 
L 128.482759 212.503678 
L 131.834483 211.704571 
L 135.186207 210.567511 
L 135.931034 210.192977 
L 137.048276 209.790391 
L 138.537931 209.300805 
L 140.027586 209.064826 
L 140.772414 208.979153 
L 141.517241 208.649351 
L 141.889655 208.491842 
L 142.262069 208.491842 
L 143.006897 208.207529 
L 148.22069 206.790138 
L 150.455172 206.142285 
L 154.924138 204.55677 
L 156.041379 204.153426 
L 156.413793 204.153426 
L 156.786207 203.923133 
L 158.275862 203.454017 
L 159.02069 203.133882 
L 159.393103 203.133882 
L 159.765517 202.882929 
L 161.627586 202.624394 
L 162.744828 202.435421 
L 164.234483 202.149971 
L 165.724138 201.882907 
L 166.841379 201.870966 
L 167.213793 201.703412 
L 167.586207 201.703412 
L 167.958621 201.556327 
L 168.331034 201.556327 
L 169.075862 201.277701 
L 170.565517 200.979742 
L 170.937931 200.979742 
L 171.682759 200.694103 
L 172.427586 200.656195 
L 172.8 200.454712 
L 173.172414 200.454712 
L 175.034483 199.882297 
L 179.875862 199.007373 
L 182.110345 198.406905 
L 182.482759 198.189501 
L 183.972414 198.02877 
L 184.344828 197.824634 
L 185.089655 197.699915 
L 185.834483 197.24729 
L 186.57931 196.894743 
L 187.324138 196.485712 
L 187.696552 196.400608 
L 188.441379 196.078577 
L 189.931034 195.33311 
L 191.42069 194.586317 
L 194.4 193.265781 
L 194.772414 192.857887 
L 195.889655 192.326792 
L 196.634483 191.979931 
L 198.496552 191.211719 
L 199.241379 190.985217 
L 204.827586 188.942907 
L 207.434483 188.421668 
L 208.924138 187.791632 
L 210.041379 187.472633 
L 211.531034 187.014701 
L 212.275862 186.759009 
L 214.882759 185.869112 
L 217.117241 185.365689 
L 217.489655 185.269971 
L 218.234483 184.911169 
L 219.724138 184.38974 
L 220.468966 184.214604 
L 220.841379 183.928396 
L 223.075862 183.132511 
L 223.448276 183.132511 
L 223.82069 182.674768 
L 224.193103 182.510246 
L 224.565517 182.510246 
L 224.937931 182.280711 
L 225.682759 182.202431 
L 226.055172 182.006066 
L 226.427586 181.490513 
L 227.172414 181.094181 
L 227.544828 181.094181 
L 228.662069 180.374492 
L 230.524138 179.763979 
L 230.896552 179.397595 
L 231.268966 179.231936 
L 231.641379 179.231936 
L 232.013793 179.055662 
L 232.386207 178.668618 
L 234.248276 177.844681 
L 234.993103 177.49782 
L 236.110345 177.161384 
L 237.227586 176.680896 
L 239.089655 176.116631 
L 239.834483 175.81128 
L 242.068966 175.194133 
L 242.813793 174.667397 
L 245.048276 173.895015 
L 245.42069 173.519912 
L 247.282759 172.820504 
L 248.027586 172.287892 
L 248.4 172.287892 
L 248.772414 172.154645 
L 249.144828 171.825221 
L 249.889655 171.577491 
L 250.634483 170.906134 
L 255.475862 168.567381 
L 256.22069 168.567381 
L 256.593103 168.122527 
L 257.710345 167.407766 
L 258.082759 167.168944 
L 258.827586 167.168944 
L 259.2 166.446412 
L 260.317241 165.666638 
L 260.689655 165.183307 
L 261.434483 165.183307 
L 261.806897 164.527304 
L 262.17931 164.527304 
L 262.551724 163.993744 
L 262.924138 163.843248 
L 263.296552 163.510603 
L 264.413793 163.510603 
L 265.158621 162.324831 
L 265.531034 162.324831 
L 265.903448 161.558515 
L 266.648276 161.558515 
L 267.02069 160.876923 
L 267.765517 160.157803 
L 268.137931 160.157803 
L 268.510345 159.550322 
L 269.255172 159.550322 
L 269.627586 159.008044 
L 270 158.689424 
L 270.372414 158.689424 
L 270.744828 158.212159 
L 271.117241 158.212159 
L 271.489655 157.92633 
L 271.862069 157.92633 
L 272.234483 157.28966 
L 272.606897 157.28966 
L 273.351724 156.57869 
L 273.724138 156.57869 
L 274.096552 156.332475 
L 274.468966 156.332475 
L 274.841379 155.891412 
L 275.586207 155.368278 
L 275.958621 155.368278 
L 276.331034 154.992038 
L 277.075862 154.992038 
L 277.448276 154.468524 
L 277.82069 154.468524 
L 278.193103 154.216623 
L 278.565517 154.216623 
L 278.937931 153.88739 
L 279.310345 153.707894 
L 279.682759 153.707894 
L 280.055172 153.307203 
L 280.8 152.973799 
L 281.172414 152.973799 
L 281.544828 152.691382 
L 282.662069 152.674513 
L 283.034483 152.26643 
L 283.406897 152.127117 
L 283.77931 152.127117 
L 284.151724 151.884315 
L 284.896552 151.884315 
L 285.268966 151.685486 
L 286.386207 151.551669 
L 287.503448 151.551669 
L 288.248276 151.184338 
L 289.365517 151.015077 
L 290.110345 150.954803 
L 290.482759 150.954803 
L 290.855172 150.760144 
L 291.6 150.687549 
L 294.951724 150.347891 
L 296.068966 150.253878 
L 304.262069 149.90607 
L 309.475862 149.803907 
L 311.337931 149.734914 
L 316.17931 149.648104 
L 317.668966 149.585744 
L 320.648276 149.585744 
L 321.02069 149.234714 
L 321.765517 149.234714 
L 322.137931 149.009917 
L 324 149.009917 
L 324.372414 148.456077 
L 325.862069 148.047994 
L 326.97931 148.047994 
L 327.351724 147.359958 
L 327.724138 147.359958 
L 328.096552 147.221782 
L 335.172414 147.221782 
L 335.544828 144.778592 
L 337.034483 144.778592 
L 337.406897 144.078805 
L 337.77931 144.078805 
L 338.524138 143.556428 
L 340.013793 143.556428 
L 340.386207 143.268136 
L 340.758621 143.268136 
L 341.131034 143.085038 
L 342.62069 143.085038 
L 342.993103 142.892654 
L 344.110345 142.892654 
L 344.482759 142.510728 
L 346.344828 142.421264 
L 346.717241 142.212958 
L 348.951724 142.119703 
L 349.324138 141.773032 
L 353.793103 141.668974 
L 356.027586 141.650399 
L 358.262069 141.576288 
L 359.006897 141.45953 
L 361.241379 141.408354 
L 361.613793 141.288185 
L 363.475862 141.186022 
L 382.468966 140.735482 
L 383.958621 140.660613 
L 385.075862 140.496659 
L 388.055172 140.427856 
L 388.8 140.10753 
L 388.8 140.10753 
" style="fill:none;stroke:#8c564b;stroke-linecap:square;stroke-width:1.5;"/>
   </g>
   <g id="patch_3">
    <path d="M 54 230.4 
L 54 34.56 
" style="fill:none;stroke:#000000;stroke-linecap:square;stroke-linejoin:miter;stroke-width:0.8;"/>
   </g>
   <g id="patch_4">
    <path d="M 388.8 230.4 
L 388.8 34.56 
" style="fill:none;stroke:#000000;stroke-linecap:square;stroke-linejoin:miter;stroke-width:0.8;"/>
   </g>
   <g id="patch_5">
    <path d="M 54 230.4 
L 388.8 230.4 
" style="fill:none;stroke:#000000;stroke-linecap:square;stroke-linejoin:miter;stroke-width:0.8;"/>
   </g>
   <g id="patch_6">
    <path d="M 54 34.56 
L 388.8 34.56 
" style="fill:none;stroke:#000000;stroke-linecap:square;stroke-linejoin:miter;stroke-width:0.8;"/>
   </g>
   <g id="text_17">
    <!-- Centroamérica -->
    <defs>
     <path d="M 64.40625 67.28125 
L 64.40625 56.890625 
Q 59.421875 61.53125 53.78125 63.8125 
Q 48.140625 66.109375 41.796875 66.109375 
Q 29.296875 66.109375 22.65625 58.46875 
Q 16.015625 50.828125 16.015625 36.375 
Q 16.015625 21.96875 22.65625 14.328125 
Q 29.296875 6.6875 41.796875 6.6875 
Q 48.140625 6.6875 53.78125 8.984375 
Q 59.421875 11.28125 64.40625 15.921875 
L 64.40625 5.609375 
Q 59.234375 2.09375 53.4375 0.328125 
Q 47.65625 -1.421875 41.21875 -1.421875 
Q 24.65625 -1.421875 15.125 8.703125 
Q 5.609375 18.84375 5.609375 36.375 
Q 5.609375 53.953125 15.125 64.078125 
Q 24.65625 74.21875 41.21875 74.21875 
Q 47.75 74.21875 53.53125 72.484375 
Q 59.328125 70.75 64.40625 67.28125 
z
" id="DejaVuSans-43"/>
     <path d="M 54.890625 33.015625 
L 54.890625 0 
L 45.90625 0 
L 45.90625 32.71875 
Q 45.90625 40.484375 42.875 44.328125 
Q 39.84375 48.1875 33.796875 48.1875 
Q 26.515625 48.1875 22.3125 43.546875 
Q 18.109375 38.921875 18.109375 30.90625 
L 18.109375 0 
L 9.078125 0 
L 9.078125 54.6875 
L 18.109375 54.6875 
L 18.109375 46.1875 
Q 21.34375 51.125 25.703125 53.5625 
Q 30.078125 56 35.796875 56 
Q 45.21875 56 50.046875 50.171875 
Q 54.890625 44.34375 54.890625 33.015625 
z
" id="DejaVuSans-6e"/>
     <path d="M 41.109375 46.296875 
Q 39.59375 47.171875 37.8125 47.578125 
Q 36.03125 48 33.890625 48 
Q 26.265625 48 22.1875 43.046875 
Q 18.109375 38.09375 18.109375 28.8125 
L 18.109375 0 
L 9.078125 0 
L 9.078125 54.6875 
L 18.109375 54.6875 
L 18.109375 46.1875 
Q 20.953125 51.171875 25.484375 53.578125 
Q 30.03125 56 36.53125 56 
Q 37.453125 56 38.578125 55.875 
Q 39.703125 55.765625 41.0625 55.515625 
z
" id="DejaVuSans-72"/>
     <path d="M 30.609375 48.390625 
Q 23.390625 48.390625 19.1875 42.75 
Q 14.984375 37.109375 14.984375 27.296875 
Q 14.984375 17.484375 19.15625 11.84375 
Q 23.34375 6.203125 30.609375 6.203125 
Q 37.796875 6.203125 41.984375 11.859375 
Q 46.1875 17.53125 46.1875 27.296875 
Q 46.1875 37.015625 41.984375 42.703125 
Q 37.796875 48.390625 30.609375 48.390625 
z
M 30.609375 56 
Q 42.328125 56 49.015625 48.375 
Q 55.71875 40.765625 55.71875 27.296875 
Q 55.71875 13.875 49.015625 6.21875 
Q 42.328125 -1.421875 30.609375 -1.421875 
Q 18.84375 -1.421875 12.171875 6.21875 
Q 5.515625 13.875 5.515625 27.296875 
Q 5.515625 40.765625 12.171875 48.375 
Q 18.84375 56 30.609375 56 
z
" id="DejaVuSans-6f"/>
     <path d="M 52 44.1875 
Q 55.375 50.25 60.0625 53.125 
Q 64.75 56 71.09375 56 
Q 79.640625 56 84.28125 50.015625 
Q 88.921875 44.046875 88.921875 33.015625 
L 88.921875 0 
L 79.890625 0 
L 79.890625 32.71875 
Q 79.890625 40.578125 77.09375 44.375 
Q 74.3125 48.1875 68.609375 48.1875 
Q 61.625 48.1875 57.5625 43.546875 
Q 53.515625 38.921875 53.515625 30.90625 
L 53.515625 0 
L 44.484375 0 
L 44.484375 32.71875 
Q 44.484375 40.625 41.703125 44.40625 
Q 38.921875 48.1875 33.109375 48.1875 
Q 26.21875 48.1875 22.15625 43.53125 
Q 18.109375 38.875 18.109375 30.90625 
L 18.109375 0 
L 9.078125 0 
L 9.078125 54.6875 
L 18.109375 54.6875 
L 18.109375 46.1875 
Q 21.1875 51.21875 25.484375 53.609375 
Q 29.78125 56 35.6875 56 
Q 41.65625 56 45.828125 52.96875 
Q 50 49.953125 52 44.1875 
z
" id="DejaVuSans-6d"/>
     <path d="M 56.203125 29.59375 
L 56.203125 25.203125 
L 14.890625 25.203125 
Q 15.484375 15.921875 20.484375 11.0625 
Q 25.484375 6.203125 34.421875 6.203125 
Q 39.59375 6.203125 44.453125 7.46875 
Q 49.3125 8.734375 54.109375 11.28125 
L 54.109375 2.78125 
Q 49.265625 0.734375 44.1875 -0.34375 
Q 39.109375 -1.421875 33.890625 -1.421875 
Q 20.796875 -1.421875 13.15625 6.1875 
Q 5.515625 13.8125 5.515625 26.8125 
Q 5.515625 40.234375 12.765625 48.109375 
Q 20.015625 56 32.328125 56 
Q 43.359375 56 49.78125 48.890625 
Q 56.203125 41.796875 56.203125 29.59375 
z
M 47.21875 32.234375 
Q 47.125 39.59375 43.09375 43.984375 
Q 39.0625 48.390625 32.421875 48.390625 
Q 24.90625 48.390625 20.390625 44.140625 
Q 15.875 39.890625 15.1875 32.171875 
z
M 38.53125 79.984375 
L 48.25 79.984375 
L 32.34375 61.625 
L 24.859375 61.625 
z
" id="DejaVuSans-e9"/>
     <path d="M 9.421875 54.6875 
L 18.40625 54.6875 
L 18.40625 0 
L 9.421875 0 
z
M 9.421875 75.984375 
L 18.40625 75.984375 
L 18.40625 64.59375 
L 9.421875 64.59375 
z
" id="DejaVuSans-69"/>
     <path d="M 48.78125 52.59375 
L 48.78125 44.1875 
Q 44.96875 46.296875 41.140625 47.34375 
Q 37.3125 48.390625 33.40625 48.390625 
Q 24.65625 48.390625 19.8125 42.84375 
Q 14.984375 37.3125 14.984375 27.296875 
Q 14.984375 17.28125 19.8125 11.734375 
Q 24.65625 6.203125 33.40625 6.203125 
Q 37.3125 6.203125 41.140625 7.25 
Q 44.96875 8.296875 48.78125 10.40625 
L 48.78125 2.09375 
Q 45.015625 0.34375 40.984375 -0.53125 
Q 36.96875 -1.421875 32.421875 -1.421875 
Q 20.0625 -1.421875 12.78125 6.34375 
Q 5.515625 14.109375 5.515625 27.296875 
Q 5.515625 40.671875 12.859375 48.328125 
Q 20.21875 56 33.015625 56 
Q 37.15625 56 41.109375 55.140625 
Q 45.0625 54.296875 48.78125 52.59375 
z
" id="DejaVuSans-63"/>
    </defs>
    <g transform="translate(176.905313 28.56)scale(0.12 -0.12)">
     <use xlink:href="#DejaVuSans-43"/>
     <use x="69.824219" xlink:href="#DejaVuSans-65"/>
     <use x="131.347656" xlink:href="#DejaVuSans-6e"/>
     <use x="194.726562" xlink:href="#DejaVuSans-74"/>
     <use x="233.935547" xlink:href="#DejaVuSans-72"/>
     <use x="275.017578" xlink:href="#DejaVuSans-6f"/>
     <use x="336.199219" xlink:href="#DejaVuSans-61"/>
     <use x="397.478516" xlink:href="#DejaVuSans-6d"/>
     <use x="494.890625" xlink:href="#DejaVuSans-e9"/>
     <use x="556.414062" xlink:href="#DejaVuSans-72"/>
     <use x="597.527344" xlink:href="#DejaVuSans-69"/>
     <use x="625.310547" xlink:href="#DejaVuSans-63"/>
     <use x="680.291016" xlink:href="#DejaVuSans-61"/>
    </g>
   </g>
   <g id="legend_1">
    <g id="patch_7">
     <path d="M 61 130.62875 
L 149.154687 130.62875 
Q 151.154687 130.62875 151.154687 128.62875 
L 151.154687 41.56 
Q 151.154687 39.56 149.154687 39.56 
L 61 39.56 
Q 59 39.56 59 41.56 
L 59 128.62875 
Q 59 130.62875 61 130.62875 
z
" style="fill:#ffffff;opacity:0.8;stroke:#cccccc;stroke-linejoin:miter;"/>
    </g>
    <g id="line2d_22">
     <path d="M 63 47.658437 
L 83 47.658437 
" style="fill:none;stroke:#1f77b4;stroke-linecap:square;stroke-width:1.5;"/>
    </g>
    <g id="line2d_23"/>
    <g id="text_18">
     <!-- Panamá -->
     <defs>
      <path d="M 19.671875 64.796875 
L 19.671875 37.40625 
L 32.078125 37.40625 
Q 38.96875 37.40625 42.71875 40.96875 
Q 46.484375 44.53125 46.484375 51.125 
Q 46.484375 57.671875 42.71875 61.234375 
Q 38.96875 64.796875 32.078125 64.796875 
z
M 9.8125 72.90625 
L 32.078125 72.90625 
Q 44.34375 72.90625 50.609375 67.359375 
Q 56.890625 61.8125 56.890625 51.125 
Q 56.890625 40.328125 50.609375 34.8125 
Q 44.34375 29.296875 32.078125 29.296875 
L 19.671875 29.296875 
L 19.671875 0 
L 9.8125 0 
z
" id="DejaVuSans-50"/>
      <path d="M 34.28125 27.484375 
Q 23.390625 27.484375 19.1875 25 
Q 14.984375 22.515625 14.984375 16.5 
Q 14.984375 11.71875 18.140625 8.90625 
Q 21.296875 6.109375 26.703125 6.109375 
Q 34.1875 6.109375 38.703125 11.40625 
Q 43.21875 16.703125 43.21875 25.484375 
L 43.21875 27.484375 
z
M 52.203125 31.203125 
L 52.203125 0 
L 43.21875 0 
L 43.21875 8.296875 
Q 40.140625 3.328125 35.546875 0.953125 
Q 30.953125 -1.421875 24.3125 -1.421875 
Q 15.921875 -1.421875 10.953125 3.296875 
Q 6 8.015625 6 15.921875 
Q 6 25.140625 12.171875 29.828125 
Q 18.359375 34.515625 30.609375 34.515625 
L 43.21875 34.515625 
L 43.21875 35.40625 
Q 43.21875 41.609375 39.140625 45 
Q 35.0625 48.390625 27.6875 48.390625 
Q 23 48.390625 18.546875 47.265625 
Q 14.109375 46.140625 10.015625 43.890625 
L 10.015625 52.203125 
Q 14.9375 54.109375 19.578125 55.046875 
Q 24.21875 56 28.609375 56 
Q 40.484375 56 46.34375 49.84375 
Q 52.203125 43.703125 52.203125 31.203125 
z
M 35.78125 79.984375 
L 45.5 79.984375 
L 29.59375 61.625 
L 22.109375 61.625 
z
" id="DejaVuSans-e1"/>
     </defs>
     <g transform="translate(91 51.158437)scale(0.1 -0.1)">
      <use xlink:href="#DejaVuSans-50"/>
      <use x="60.240234" xlink:href="#DejaVuSans-61"/>
      <use x="121.519531" xlink:href="#DejaVuSans-6e"/>
      <use x="184.898438" xlink:href="#DejaVuSans-61"/>
      <use x="246.177734" xlink:href="#DejaVuSans-6d"/>
      <use x="343.589844" xlink:href="#DejaVuSans-e1"/>
     </g>
    </g>
    <g id="line2d_24">
     <path d="M 63 62.336562 
L 83 62.336562 
" style="fill:none;stroke:#ff7f0e;stroke-linecap:square;stroke-width:1.5;"/>
    </g>
    <g id="line2d_25"/>
    <g id="text_19">
     <!-- Costa Rica -->
     <defs>
      <path d="M 44.28125 53.078125 
L 44.28125 44.578125 
Q 40.484375 46.53125 36.375 47.5 
Q 32.28125 48.484375 27.875 48.484375 
Q 21.1875 48.484375 17.84375 46.4375 
Q 14.5 44.390625 14.5 40.28125 
Q 14.5 37.15625 16.890625 35.375 
Q 19.28125 33.59375 26.515625 31.984375 
L 29.59375 31.296875 
Q 39.15625 29.25 43.1875 25.515625 
Q 47.21875 21.78125 47.21875 15.09375 
Q 47.21875 7.46875 41.1875 3.015625 
Q 35.15625 -1.421875 24.609375 -1.421875 
Q 20.21875 -1.421875 15.453125 -0.5625 
Q 10.6875 0.296875 5.421875 2 
L 5.421875 11.28125 
Q 10.40625 8.6875 15.234375 7.390625 
Q 20.0625 6.109375 24.8125 6.109375 
Q 31.15625 6.109375 34.5625 8.28125 
Q 37.984375 10.453125 37.984375 14.40625 
Q 37.984375 18.0625 35.515625 20.015625 
Q 33.0625 21.96875 24.703125 23.78125 
L 21.578125 24.515625 
Q 13.234375 26.265625 9.515625 29.90625 
Q 5.8125 33.546875 5.8125 39.890625 
Q 5.8125 47.609375 11.28125 51.796875 
Q 16.75 56 26.8125 56 
Q 31.78125 56 36.171875 55.265625 
Q 40.578125 54.546875 44.28125 53.078125 
z
" id="DejaVuSans-73"/>
      <path id="DejaVuSans-20"/>
      <path d="M 44.390625 34.1875 
Q 47.5625 33.109375 50.5625 29.59375 
Q 53.5625 26.078125 56.59375 19.921875 
L 66.609375 0 
L 56 0 
L 46.6875 18.703125 
Q 43.0625 26.03125 39.671875 28.421875 
Q 36.28125 30.8125 30.421875 30.8125 
L 19.671875 30.8125 
L 19.671875 0 
L 9.8125 0 
L 9.8125 72.90625 
L 32.078125 72.90625 
Q 44.578125 72.90625 50.734375 67.671875 
Q 56.890625 62.453125 56.890625 51.90625 
Q 56.890625 45.015625 53.6875 40.46875 
Q 50.484375 35.9375 44.390625 34.1875 
z
M 19.671875 64.796875 
L 19.671875 38.921875 
L 32.078125 38.921875 
Q 39.203125 38.921875 42.84375 42.21875 
Q 46.484375 45.515625 46.484375 51.90625 
Q 46.484375 58.296875 42.84375 61.546875 
Q 39.203125 64.796875 32.078125 64.796875 
z
" id="DejaVuSans-52"/>
     </defs>
     <g transform="translate(91 65.836562)scale(0.1 -0.1)">
      <use xlink:href="#DejaVuSans-43"/>
      <use x="69.824219" xlink:href="#DejaVuSans-6f"/>
      <use x="131.005859" xlink:href="#DejaVuSans-73"/>
      <use x="183.105469" xlink:href="#DejaVuSans-74"/>
      <use x="222.314453" xlink:href="#DejaVuSans-61"/>
      <use x="283.59375" xlink:href="#DejaVuSans-20"/>
      <use x="315.380859" xlink:href="#DejaVuSans-52"/>
      <use x="384.863281" xlink:href="#DejaVuSans-69"/>
      <use x="412.646484" xlink:href="#DejaVuSans-63"/>
      <use x="467.626953" xlink:href="#DejaVuSans-61"/>
     </g>
    </g>
    <g id="line2d_26">
     <path d="M 63 77.014687 
L 83 77.014687 
" style="fill:none;stroke:#2ca02c;stroke-linecap:square;stroke-width:1.5;"/>
    </g>
    <g id="line2d_27"/>
    <g id="text_20">
     <!-- Nicaragua -->
     <defs>
      <path d="M 9.8125 72.90625 
L 23.09375 72.90625 
L 55.421875 11.921875 
L 55.421875 72.90625 
L 64.984375 72.90625 
L 64.984375 0 
L 51.703125 0 
L 19.390625 60.984375 
L 19.390625 0 
L 9.8125 0 
z
" id="DejaVuSans-4e"/>
      <path d="M 45.40625 27.984375 
Q 45.40625 37.75 41.375 43.109375 
Q 37.359375 48.484375 30.078125 48.484375 
Q 22.859375 48.484375 18.828125 43.109375 
Q 14.796875 37.75 14.796875 27.984375 
Q 14.796875 18.265625 18.828125 12.890625 
Q 22.859375 7.515625 30.078125 7.515625 
Q 37.359375 7.515625 41.375 12.890625 
Q 45.40625 18.265625 45.40625 27.984375 
z
M 54.390625 6.78125 
Q 54.390625 -7.171875 48.1875 -13.984375 
Q 42 -20.796875 29.203125 -20.796875 
Q 24.46875 -20.796875 20.265625 -20.09375 
Q 16.0625 -19.390625 12.109375 -17.921875 
L 12.109375 -9.1875 
Q 16.0625 -11.328125 19.921875 -12.34375 
Q 23.78125 -13.375 27.78125 -13.375 
Q 36.625 -13.375 41.015625 -8.765625 
Q 45.40625 -4.15625 45.40625 5.171875 
L 45.40625 9.625 
Q 42.625 4.78125 38.28125 2.390625 
Q 33.9375 0 27.875 0 
Q 17.828125 0 11.671875 7.65625 
Q 5.515625 15.328125 5.515625 27.984375 
Q 5.515625 40.671875 11.671875 48.328125 
Q 17.828125 56 27.875 56 
Q 33.9375 56 38.28125 53.609375 
Q 42.625 51.21875 45.40625 46.390625 
L 45.40625 54.6875 
L 54.390625 54.6875 
z
" id="DejaVuSans-67"/>
      <path d="M 8.5 21.578125 
L 8.5 54.6875 
L 17.484375 54.6875 
L 17.484375 21.921875 
Q 17.484375 14.15625 20.5 10.265625 
Q 23.53125 6.390625 29.59375 6.390625 
Q 36.859375 6.390625 41.078125 11.03125 
Q 45.3125 15.671875 45.3125 23.6875 
L 45.3125 54.6875 
L 54.296875 54.6875 
L 54.296875 0 
L 45.3125 0 
L 45.3125 8.40625 
Q 42.046875 3.421875 37.71875 1 
Q 33.40625 -1.421875 27.6875 -1.421875 
Q 18.265625 -1.421875 13.375 4.4375 
Q 8.5 10.296875 8.5 21.578125 
z
M 31.109375 56 
z
" id="DejaVuSans-75"/>
     </defs>
     <g transform="translate(91 80.514687)scale(0.1 -0.1)">
      <use xlink:href="#DejaVuSans-4e"/>
      <use x="74.804688" xlink:href="#DejaVuSans-69"/>
      <use x="102.587891" xlink:href="#DejaVuSans-63"/>
      <use x="157.568359" xlink:href="#DejaVuSans-61"/>
      <use x="218.847656" xlink:href="#DejaVuSans-72"/>
      <use x="259.960938" xlink:href="#DejaVuSans-61"/>
      <use x="321.240234" xlink:href="#DejaVuSans-67"/>
      <use x="384.716797" xlink:href="#DejaVuSans-75"/>
      <use x="448.095703" xlink:href="#DejaVuSans-61"/>
     </g>
    </g>
    <g id="line2d_28">
     <path d="M 63 91.692813 
L 83 91.692813 
" style="fill:none;stroke:#d62728;stroke-linecap:square;stroke-width:1.5;"/>
    </g>
    <g id="line2d_29"/>
    <g id="text_21">
     <!-- Guatemala -->
     <defs>
      <path d="M 59.515625 10.40625 
L 59.515625 29.984375 
L 43.40625 29.984375 
L 43.40625 38.09375 
L 69.28125 38.09375 
L 69.28125 6.78125 
Q 63.578125 2.734375 56.6875 0.65625 
Q 49.8125 -1.421875 42 -1.421875 
Q 24.90625 -1.421875 15.25 8.5625 
Q 5.609375 18.5625 5.609375 36.375 
Q 5.609375 54.25 15.25 64.234375 
Q 24.90625 74.21875 42 74.21875 
Q 49.125 74.21875 55.546875 72.453125 
Q 61.96875 70.703125 67.390625 67.28125 
L 67.390625 56.78125 
Q 61.921875 61.421875 55.765625 63.765625 
Q 49.609375 66.109375 42.828125 66.109375 
Q 29.4375 66.109375 22.71875 58.640625 
Q 16.015625 51.171875 16.015625 36.375 
Q 16.015625 21.625 22.71875 14.15625 
Q 29.4375 6.6875 42.828125 6.6875 
Q 48.046875 6.6875 52.140625 7.59375 
Q 56.25 8.5 59.515625 10.40625 
z
" id="DejaVuSans-47"/>
      <path d="M 9.421875 75.984375 
L 18.40625 75.984375 
L 18.40625 0 
L 9.421875 0 
z
" id="DejaVuSans-6c"/>
     </defs>
     <g transform="translate(91 95.192813)scale(0.1 -0.1)">
      <use xlink:href="#DejaVuSans-47"/>
      <use x="77.490234" xlink:href="#DejaVuSans-75"/>
      <use x="140.869141" xlink:href="#DejaVuSans-61"/>
      <use x="202.148438" xlink:href="#DejaVuSans-74"/>
      <use x="241.357422" xlink:href="#DejaVuSans-65"/>
      <use x="302.880859" xlink:href="#DejaVuSans-6d"/>
      <use x="400.292969" xlink:href="#DejaVuSans-61"/>
      <use x="461.572266" xlink:href="#DejaVuSans-6c"/>
      <use x="489.355469" xlink:href="#DejaVuSans-61"/>
     </g>
    </g>
    <g id="line2d_30">
     <path d="M 63 106.370937 
L 83 106.370937 
" style="fill:none;stroke:#9467bd;stroke-linecap:square;stroke-width:1.5;"/>
    </g>
    <g id="line2d_31"/>
    <g id="text_22">
     <!-- El Salvador -->
     <defs>
      <path d="M 9.8125 72.90625 
L 55.90625 72.90625 
L 55.90625 64.59375 
L 19.671875 64.59375 
L 19.671875 43.015625 
L 54.390625 43.015625 
L 54.390625 34.71875 
L 19.671875 34.71875 
L 19.671875 8.296875 
L 56.78125 8.296875 
L 56.78125 0 
L 9.8125 0 
z
" id="DejaVuSans-45"/>
      <path d="M 53.515625 70.515625 
L 53.515625 60.890625 
Q 47.90625 63.578125 42.921875 64.890625 
Q 37.9375 66.21875 33.296875 66.21875 
Q 25.25 66.21875 20.875 63.09375 
Q 16.5 59.96875 16.5 54.203125 
Q 16.5 49.359375 19.40625 46.890625 
Q 22.3125 44.4375 30.421875 42.921875 
L 36.375 41.703125 
Q 47.40625 39.59375 52.65625 34.296875 
Q 57.90625 29 57.90625 20.125 
Q 57.90625 9.515625 50.796875 4.046875 
Q 43.703125 -1.421875 29.984375 -1.421875 
Q 24.8125 -1.421875 18.96875 -0.25 
Q 13.140625 0.921875 6.890625 3.21875 
L 6.890625 13.375 
Q 12.890625 10.015625 18.65625 8.296875 
Q 24.421875 6.59375 29.984375 6.59375 
Q 38.421875 6.59375 43.015625 9.90625 
Q 47.609375 13.234375 47.609375 19.390625 
Q 47.609375 24.75 44.3125 27.78125 
Q 41.015625 30.8125 33.5 32.328125 
L 27.484375 33.5 
Q 16.453125 35.6875 11.515625 40.375 
Q 6.59375 45.0625 6.59375 53.421875 
Q 6.59375 63.09375 13.40625 68.65625 
Q 20.21875 74.21875 32.171875 74.21875 
Q 37.3125 74.21875 42.625 73.28125 
Q 47.953125 72.359375 53.515625 70.515625 
z
" id="DejaVuSans-53"/>
      <path d="M 2.984375 54.6875 
L 12.5 54.6875 
L 29.59375 8.796875 
L 46.6875 54.6875 
L 56.203125 54.6875 
L 35.6875 0 
L 23.484375 0 
z
" id="DejaVuSans-76"/>
      <path d="M 45.40625 46.390625 
L 45.40625 75.984375 
L 54.390625 75.984375 
L 54.390625 0 
L 45.40625 0 
L 45.40625 8.203125 
Q 42.578125 3.328125 38.25 0.953125 
Q 33.9375 -1.421875 27.875 -1.421875 
Q 17.96875 -1.421875 11.734375 6.484375 
Q 5.515625 14.40625 5.515625 27.296875 
Q 5.515625 40.1875 11.734375 48.09375 
Q 17.96875 56 27.875 56 
Q 33.9375 56 38.25 53.625 
Q 42.578125 51.265625 45.40625 46.390625 
z
M 14.796875 27.296875 
Q 14.796875 17.390625 18.875 11.75 
Q 22.953125 6.109375 30.078125 6.109375 
Q 37.203125 6.109375 41.296875 11.75 
Q 45.40625 17.390625 45.40625 27.296875 
Q 45.40625 37.203125 41.296875 42.84375 
Q 37.203125 48.484375 30.078125 48.484375 
Q 22.953125 48.484375 18.875 42.84375 
Q 14.796875 37.203125 14.796875 27.296875 
z
" id="DejaVuSans-64"/>
     </defs>
     <g transform="translate(91 109.870937)scale(0.1 -0.1)">
      <use xlink:href="#DejaVuSans-45"/>
      <use x="63.183594" xlink:href="#DejaVuSans-6c"/>
      <use x="90.966797" xlink:href="#DejaVuSans-20"/>
      <use x="122.753906" xlink:href="#DejaVuSans-53"/>
      <use x="186.230469" xlink:href="#DejaVuSans-61"/>
      <use x="247.509766" xlink:href="#DejaVuSans-6c"/>
      <use x="275.292969" xlink:href="#DejaVuSans-76"/>
      <use x="334.472656" xlink:href="#DejaVuSans-61"/>
      <use x="395.751953" xlink:href="#DejaVuSans-64"/>
      <use x="459.228516" xlink:href="#DejaVuSans-6f"/>
      <use x="520.410156" xlink:href="#DejaVuSans-72"/>
     </g>
    </g>
    <g id="line2d_32">
     <path d="M 63 121.049062 
L 83 121.049062 
" style="fill:none;stroke:#8c564b;stroke-linecap:square;stroke-width:1.5;"/>
    </g>
    <g id="line2d_33"/>
    <g id="text_23">
     <!-- Honduras -->
     <defs>
      <path d="M 9.8125 72.90625 
L 19.671875 72.90625 
L 19.671875 43.015625 
L 55.515625 43.015625 
L 55.515625 72.90625 
L 65.375 72.90625 
L 65.375 0 
L 55.515625 0 
L 55.515625 34.71875 
L 19.671875 34.71875 
L 19.671875 0 
L 9.8125 0 
z
" id="DejaVuSans-48"/>
     </defs>
     <g transform="translate(91 124.549062)scale(0.1 -0.1)">
      <use xlink:href="#DejaVuSans-48"/>
      <use x="75.195312" xlink:href="#DejaVuSans-6f"/>
      <use x="136.376953" xlink:href="#DejaVuSans-6e"/>
      <use x="199.755859" xlink:href="#DejaVuSans-64"/>
      <use x="263.232422" xlink:href="#DejaVuSans-75"/>
      <use x="326.611328" xlink:href="#DejaVuSans-72"/>
      <use x="367.724609" xlink:href="#DejaVuSans-61"/>
      <use x="429.003906" xlink:href="#DejaVuSans-73"/>
     </g>
    </g>
   </g>
  </g>
 </g>
 <defs>
  <clipPath id="p09f1c92d7d">
   <rect height="195.84" width="334.8" x="54" y="34.56"/>
  </clipPath>
 </defs>
</svg>
